<?xml version="1.0" standalone="no"?>
<!DOCTYPE svg PUBLIC "-//W3C//DTD SVG 20010904//EN"
 "http://www.w3.org/TR/2001/REC-SVG-20010904/DTD/svg10.dtd">
<svg version="1.0" xmlns="http://www.w3.org/2000/svg"
 width="900.000000pt" height="900.000000pt" viewBox="0 0 900.000000 900.000000"
 preserveAspectRatio="xMidYMid meet">
<metadata>
Created by potrace 1.11, written by Peter Selinger 2001-2013
</metadata>
<g transform="translate(0.000000,900.000000) scale(0.100000,-0.100000)"
fill="#000000" stroke="none">
<path d="M7285 8350 l-1570 -650 68 0 67 0 0 -695 0 -695 -201 2 -201 3 -257
376 -256 376 -3 -378 -2 -379 -200 0 -200 0 0 450 c0 248 -1 450 -2 450 -2 0
-55 -22 -118 -48 l-115 -48 -6 -144 c-8 -203 -38 -305 -124 -426 -78 -108
-196 -186 -344 -226 -104 -28 -340 -30 -456 -4 -153 34 -297 123 -371 229
l-19 27 -1485 -613 -1485 -613 0 -979 0 -978 2200 -1693 2200 -1694 1732 0
1731 0 6 27 c3 16 258 1925 566 4244 l560 4216 0 257 0 256 -72 -1 -73 0
-1570 -649z m-679 -884 c76 -129 142 -232 146 -228 4 4 68 109 143 235 l136
227 234 0 235 0 -270 -405 -270 -405 0 -290 0 -290 -210 0 -210 0 0 288 0 289
-270 401 c-148 221 -270 404 -270 407 0 3 105 5 233 5 l234 0 139 -234z"/>
<path d="M5271 7519 c-91 -38 -166 -71 -169 -73 -4 -4 310 -471 334 -496 12
-12 14 33 14 313 0 180 -3 327 -7 326 -5 -1 -82 -32 -172 -70z"/>
<path d="M3610 6832 c-140 -57 -257 -106 -259 -108 -9 -8 55 -66 94 -87 55
-30 212 -32 265 -3 84 44 123 105 146 223 8 42 13 77 12 78 -2 2 -118 -45
-258 -103z"/>
</g>
</svg>
